<svg width="19" height="21" viewBox="0 0 19 21" fill="none" xmlns="http://www.w3.org/2000/svg">
<g clip-path="url(#clip0_26_4580)">
<path d="M8.182 1.08923H18.1818C18.2294 1.08923 18.2751 1.10801 18.3089 1.1415C18.3428 1.17498 18.362 1.22047 18.3626 1.26809V3.66619C18.3626 3.71416 18.3435 3.76016 18.3096 3.79408C18.2757 3.82799 18.2297 3.84705 18.1818 3.84705C18.1339 3.84705 18.0879 3.82799 18.054 3.79408C18.0201 3.76016 18.001 3.71416 18.001 3.66619V1.44895H8.36276V5.6696C8.36276 5.71757 8.34371 5.76357 8.30981 5.79749C8.27591 5.8314 8.22994 5.85046 8.182 5.85046H0.832692V20.0122H18.001V7.22937H11.5885V9.36667C11.5885 9.41464 11.5695 9.46064 11.5356 9.49456C11.5017 9.52847 11.4557 9.54753 11.4077 9.54753C11.3598 9.54753 11.3138 9.52847 11.2799 9.49456C11.246 9.46064 11.227 9.41464 11.227 9.36667V7.04851C11.227 7.00054 11.246 6.95454 11.2799 6.92062C11.3138 6.88671 11.3598 6.86765 11.4077 6.86765H18.1818C18.2055 6.86765 18.229 6.87233 18.251 6.88142C18.2729 6.89051 18.2928 6.90383 18.3096 6.92062C18.3264 6.93742 18.3397 6.95736 18.3488 6.9793C18.3579 7.00124 18.3626 7.02476 18.3626 7.04851V20.1931C18.3626 20.2168 18.3579 20.2404 18.3488 20.2623C18.3397 20.2842 18.3264 20.3042 18.3096 20.321C18.2928 20.3378 18.2729 20.3511 18.251 20.3602C18.229 20.3693 18.2055 20.3739 18.1818 20.3739H0.652929C0.604989 20.3739 0.559011 20.3549 0.525112 20.321C0.491212 20.2871 0.472168 20.2411 0.472168 20.1931V5.6696C0.472168 5.62164 0.491212 5.57563 0.525112 5.54172C0.559011 5.5078 0.604989 5.48875 0.652929 5.48875H8.00123V1.26809C8.00176 1.22047 8.02104 1.17498 8.05488 1.1415C8.08872 1.10801 8.1344 1.08923 8.182 1.08923Z" fill="#0C4653" stroke="#0C4653" stroke-width="0.29982"/>
<path d="M11.4076 12.1783H13.5628C13.6107 12.1783 13.6567 12.1974 13.6906 12.2313C13.7245 12.2652 13.7436 12.3112 13.7436 12.3592C13.7436 12.4072 13.7245 12.4532 13.6906 12.4871C13.6567 12.521 13.6107 12.5401 13.5628 12.5401H11.5884V14.2077C11.5884 14.2557 11.5694 14.3017 11.5355 14.3356C11.5016 14.3695 11.4556 14.3886 11.4076 14.3886H0.651831C0.60389 14.3886 0.557913 14.3695 0.524013 14.3356C0.490114 14.3017 0.471069 14.2557 0.471069 14.2077C0.471069 14.1598 0.490114 14.1138 0.524013 14.0799C0.557913 14.0459 0.60389 14.0269 0.651831 14.0269H11.2269V12.3582C11.2271 12.3104 11.2463 12.2647 11.2802 12.231C11.314 12.1973 11.3599 12.1783 11.4076 12.1783Z" fill="#0C4653" stroke="#0C4653" stroke-width="0.29982"/>
<path d="M16.422 12.1783H18.1817C18.2297 12.1783 18.2756 12.1974 18.3095 12.2313C18.3434 12.2652 18.3625 12.3112 18.3625 12.3592C18.3625 12.4072 18.3434 12.4532 18.3095 12.4871C18.2756 12.521 18.2297 12.5401 18.1817 12.5401H16.422C16.3741 12.5401 16.3281 12.521 16.2942 12.4871C16.2603 12.4532 16.2413 12.4072 16.2413 12.3592C16.2413 12.3112 16.2603 12.2652 16.2942 12.2313C16.3281 12.1974 16.3741 12.1783 16.422 12.1783Z" fill="#0C4653" stroke="#0C4653" stroke-width="0.29982"/>
<path d="M11.4078 16.7557C11.4557 16.7557 11.5017 16.7748 11.5357 16.8087C11.5696 16.8426 11.5887 16.8887 11.5887 16.9366V20.1937C11.5887 20.2417 11.5696 20.2877 11.5357 20.3216C11.5017 20.3555 11.4557 20.3746 11.4078 20.3746C11.3598 20.3746 11.3138 20.3555 11.2798 20.3216C11.2459 20.2877 11.2269 20.2417 11.2269 20.1937V16.9366C11.2269 16.8887 11.2459 16.8426 11.2798 16.8087C11.3138 16.7748 11.3598 16.7557 11.4078 16.7557Z" fill="#0C4653" stroke="#0C4653" stroke-width="0.29982"/>
</g>
<defs>
<clipPath id="clip0_26_4580">
<rect width="18.19" height="19.59" fill="white" transform="translate(0.322266 0.936035)"/>
</clipPath>
</defs>
</svg>
