<svg width="29" height="23" viewBox="0 0 29 23" fill="none" xmlns="http://www.w3.org/2000/svg">
<g clip-path="url(#clip0_26_4602)">
<path d="M21.3944 21.1819H7.3772C5.26028 21.1819 1.85364 17.6671 1.85364 15.4855V12.8981C1.85364 12.7966 1.89395 12.6993 1.96571 12.6275C2.03746 12.5557 2.13478 12.5154 2.23626 12.5154H26.5284C26.629 12.5154 26.7255 12.555 26.7972 12.6257C26.8688 12.6964 26.9097 12.7925 26.911 12.8931V15.4845C26.911 17.6671 23.5083 21.1819 21.3944 21.1819ZM2.61289 13.2779V15.4835C2.61289 17.2823 5.63791 20.4173 7.37221 20.4173H21.3894C23.1217 20.4173 26.1417 17.2813 26.1417 15.4835V13.2789L2.61289 13.2779Z" fill="#0C4653"/>
<path d="M5.1844 11.4211C5.13415 11.4211 5.0844 11.4112 5.03798 11.3919C4.99155 11.3727 4.94937 11.3445 4.91384 11.309C4.87831 11.2734 4.85013 11.2312 4.8309 11.1848C4.81167 11.1383 4.80178 11.0886 4.80178 11.0383V3.92584C4.78149 3.46433 4.8528 3.00337 5.01158 2.56957C5.17036 2.13578 5.41347 1.73774 5.72687 1.39845C6.00135 1.12424 6.32773 0.907532 6.68692 0.760991C7.04611 0.614449 7.43091 0.54102 7.81881 0.544996C8.58213 0.525929 9.32358 0.801083 9.88978 1.31354C10.456 1.826 10.8036 2.53656 10.8608 3.29824C10.8649 3.34824 10.8591 3.39856 10.8437 3.44631C10.8283 3.49406 10.8037 3.53832 10.7712 3.57655C10.7388 3.61479 10.6991 3.64625 10.6545 3.66914C10.6098 3.69203 10.5611 3.70591 10.5112 3.70998C10.4612 3.71405 10.4109 3.70823 10.3631 3.69285C10.3154 3.67748 10.2712 3.65285 10.2329 3.62037C10.1558 3.55477 10.1078 3.46119 10.0996 3.3602C10.0547 2.79106 9.793 2.2609 9.36855 1.87925C8.94409 1.49761 8.3893 1.29365 7.81881 1.30951C7.53187 1.30575 7.24707 1.35923 6.98103 1.46681C6.71499 1.5744 6.47304 1.73394 6.26933 1.93611C5.78184 2.48043 5.53031 3.1961 5.57002 3.92584V11.0383C5.57002 11.0888 5.56003 11.1388 5.54061 11.1855C5.52119 11.2321 5.49274 11.2744 5.45689 11.31C5.42105 11.3456 5.37851 11.3737 5.33174 11.3928C5.28497 11.4119 5.2349 11.4215 5.1844 11.4211Z" fill="#0C4653"/>
<path d="M27.6303 13.278H1.13439C0.869437 13.278 0.615333 13.1727 0.427981 12.9852C0.240629 12.7978 0.135376 12.5436 0.135376 12.2786V11.9018C0.135376 11.6368 0.240629 11.3826 0.427981 11.1952C0.615333 11.0078 0.869437 10.9025 1.13439 10.9025H27.6303C27.8953 10.9025 28.1494 11.0078 28.3367 11.1952C28.5241 11.3826 28.6293 11.6368 28.6293 11.9018V12.2786C28.6293 12.5436 28.5241 12.7978 28.3367 12.9852C28.1494 13.1727 27.8953 13.278 27.6303 13.278ZM1.13439 11.662C1.07167 11.6625 1.01164 11.6876 0.967191 11.7319C0.922741 11.7761 0.897409 11.8361 0.896627 11.8988V12.2756C0.897662 12.3383 0.923075 12.3981 0.96747 12.4423C1.01187 12.4865 1.07175 12.5117 1.13439 12.5124H27.6303C27.693 12.5117 27.7528 12.4865 27.7972 12.4423C27.8416 12.3981 27.867 12.3383 27.8681 12.2756V11.8988C27.8673 11.8361 27.842 11.7761 27.7975 11.7319C27.7531 11.6876 27.693 11.6625 27.6303 11.662H1.13439Z" fill="#0C4653"/>
<path d="M12.7679 6.0086C12.6666 6.00834 12.5695 5.96789 12.498 5.89614C12.4265 5.82439 12.3863 5.72719 12.3863 5.62584C12.3748 5.12546 12.1681 4.64941 11.8103 4.29955C11.4525 3.9497 10.972 3.75382 10.4717 3.75382C9.97131 3.75382 9.49084 3.9497 9.13302 4.29955C8.77521 4.64941 8.56847 5.12546 8.55704 5.62584C8.55203 5.72385 8.50959 5.81618 8.43848 5.88377C8.36736 5.95136 8.27301 5.98905 8.17492 5.98905C8.07683 5.98905 7.98248 5.95136 7.91137 5.88377C7.84025 5.81618 7.79781 5.72385 7.7928 5.62584C7.78592 5.26957 7.85013 4.91551 7.98166 4.58436C8.1132 4.2532 8.30942 3.95161 8.55886 3.69723C8.8083 3.44284 9.10594 3.24076 9.43437 3.1028C9.76281 2.96485 10.1154 2.8938 10.4717 2.8938C10.8279 2.8938 11.1805 2.96485 11.5089 3.1028C11.8374 3.24076 12.135 3.44284 12.3845 3.69723C12.6339 3.95161 12.8301 4.2532 12.9617 4.58436C13.0932 4.91551 13.1574 5.26957 13.1505 5.62584C13.1505 5.67611 13.1406 5.72588 13.1214 5.77232C13.1022 5.81876 13.074 5.86095 13.0385 5.89649C13.0029 5.93204 12.9607 5.96023 12.9143 5.97947C12.8679 5.9987 12.8181 6.0086 12.7679 6.0086Z" fill="#0C4653"/>
<path d="M13.6241 6.36633H7.31928C7.26746 6.36898 7.21563 6.36106 7.16697 6.34305C7.1183 6.32503 7.0738 6.29731 7.03618 6.26155C6.99856 6.22579 6.96861 6.18276 6.94814 6.13505C6.92767 6.08735 6.91711 6.03599 6.91711 5.98407C6.91711 5.93216 6.92767 5.8808 6.94814 5.83309C6.96861 5.78539 6.99856 5.74236 7.03618 5.7066C7.0738 5.67084 7.1183 5.64311 7.16697 5.6251C7.21563 5.60709 7.26746 5.59917 7.31928 5.60182H13.6241C13.722 5.60683 13.8143 5.64929 13.8819 5.72043C13.9495 5.79157 13.9872 5.88595 13.9872 5.98407C13.9872 6.0822 13.9495 6.17658 13.8819 6.24772C13.8143 6.31886 13.722 6.36132 13.6241 6.36633Z" fill="#0C4653"/>
<path d="M6.04368 22.5279C5.97088 22.5278 5.89962 22.507 5.83826 22.4678C5.7769 22.4286 5.72798 22.3727 5.69724 22.3067C5.6665 22.2407 5.65521 22.1673 5.66471 22.0951C5.6742 22.0229 5.70408 21.9549 5.75084 21.899L6.87822 20.5553C6.94497 20.483 7.037 20.4391 7.13521 20.4329C7.23342 20.4267 7.33026 20.4585 7.40563 20.5218C7.481 20.5851 7.5291 20.675 7.53995 20.7728C7.5508 20.8707 7.52356 20.9689 7.4639 21.0472L6.33552 22.391C6.29989 22.4338 6.25528 22.4683 6.20485 22.4919C6.15441 22.5156 6.09939 22.5279 6.04368 22.5279Z" fill="#0C4653"/>
<path d="M22.7208 22.5279C22.6649 22.528 22.6097 22.5158 22.5591 22.4922C22.5085 22.4685 22.4637 22.4339 22.428 22.391L21.2996 21.0472C21.2399 20.9689 21.2127 20.8707 21.2235 20.7728C21.2344 20.675 21.2825 20.5851 21.3578 20.5218C21.4332 20.4585 21.5301 20.4267 21.6283 20.4329C21.7265 20.4391 21.8185 20.483 21.8853 20.5553L23.0156 21.899C23.0624 21.9549 23.0923 22.0229 23.1018 22.0951C23.1113 22.1673 23.1 22.2407 23.0692 22.3067C23.0385 22.3727 22.9896 22.4286 22.9282 22.4678C22.8669 22.507 22.7956 22.5278 22.7228 22.5279H22.7208Z" fill="#0C4653"/>
</g>
<defs>
<clipPath id="clip0_26_4602">
<rect width="28.5" height="21.98" fill="white" transform="translate(0.132324 0.546021)"/>
</clipPath>
</defs>
</svg>
