<svg width="25" height="19" viewBox="0 0 25 19" fill="none" xmlns="http://www.w3.org/2000/svg">
<g clip-path="url(#clip0_26_4592)">
<path d="M21.6336 8.60295H3.00984C2.91582 8.60295 2.82565 8.56559 2.75917 8.49908C2.69268 8.43257 2.65533 8.34237 2.65533 8.24831V3.60196C2.65639 2.7918 2.97856 2.01512 3.5512 1.44225C4.12384 0.869381 4.9002 0.547078 5.71004 0.546021L18.9334 0.546021C19.7433 0.547078 20.5196 0.869381 21.0923 1.44225C21.6649 2.01512 21.9871 2.7918 21.9881 3.60196V8.24831C21.9881 8.29488 21.979 8.341 21.9612 8.38403C21.9433 8.42705 21.9172 8.46615 21.8843 8.49908C21.8514 8.53201 21.8123 8.55814 21.7693 8.57596C21.7263 8.59378 21.6802 8.60295 21.6336 8.60295ZM3.36434 7.89366H21.2791V3.59796C21.2783 2.97584 21.031 2.37942 20.5912 1.93951C20.1515 1.4996 19.5553 1.25211 18.9334 1.25131H5.71004C5.08816 1.25211 4.49198 1.4996 4.05225 1.93951C3.61252 2.37942 3.36513 2.97584 3.36434 3.59796V7.89366Z" fill="#0C4653"/>
<path d="M12.3218 8.60298H4.74543C4.65141 8.60298 4.56124 8.56561 4.49476 8.49911C4.42828 8.4326 4.39093 8.34239 4.39093 8.24833V5.26033C4.39172 4.69755 4.61555 4.15805 5.01333 3.7601C5.41111 3.36216 5.95039 3.13824 6.51295 3.13745H10.5533C11.1158 3.13824 11.6551 3.36216 12.0529 3.7601C12.4507 4.15805 12.6745 4.69755 12.6753 5.26033V8.24833C12.6753 8.34222 12.6381 8.43227 12.5718 8.49875C12.5055 8.56523 12.4156 8.60272 12.3218 8.60298ZM5.09993 7.89369H11.9673V5.26033C11.9667 4.88558 11.8177 4.52634 11.5528 4.26135C11.288 3.99637 10.9289 3.84727 10.5543 3.84674H6.51394C6.13935 3.84727 5.78025 3.99637 5.51538 4.26135C5.2505 4.52634 5.10146 4.88558 5.10093 5.26033L5.09993 7.89369Z" fill="#0C4653"/>
<path d="M19.8931 8.60298H12.3168C12.2702 8.60298 12.2241 8.59381 12.1811 8.57598C12.1381 8.55816 12.099 8.53204 12.0661 8.49911C12.0332 8.46617 12.0071 8.42708 11.9893 8.38405C11.9715 8.34102 11.9623 8.29491 11.9623 8.24833V5.26033C11.9631 4.69755 12.1869 4.15805 12.5847 3.7601C12.9825 3.36216 13.5217 3.13824 14.0843 3.13745H18.1246C18.6872 3.13798 19.2267 3.36181 19.6245 3.75981C20.0224 4.15781 20.2461 4.69747 20.2466 5.26033V8.24833C20.2466 8.34222 20.2094 8.43227 20.1431 8.49875C20.0769 8.56523 19.987 8.60272 19.8931 8.60298ZM12.6713 7.89369H19.5386V5.26033C19.5381 4.88558 19.3891 4.52634 19.1242 4.26135C18.8593 3.99637 18.5002 3.84727 18.1256 3.84674H14.0853C13.7107 3.84727 13.3516 3.99637 13.0867 4.26135C12.8218 4.52634 12.6728 4.88558 12.6723 5.26033L12.6713 7.89369Z" fill="#0C4653"/>
<path d="M23.9594 17.3732H0.685129C0.591109 17.3732 0.50094 17.3358 0.434458 17.2693C0.367977 17.2028 0.330627 17.1126 0.330627 17.0185V11.3073C0.331685 10.4022 0.691523 9.5346 1.33121 8.89466C1.97089 8.25472 2.83818 7.89473 3.74283 7.89368H20.9007C21.8055 7.89447 22.6731 8.25434 23.313 8.89431C23.9529 9.53428 24.3128 10.4021 24.3139 11.3073V17.0185C24.3139 17.1126 24.2765 17.2028 24.2101 17.2693C24.1436 17.3358 24.0534 17.3732 23.9594 17.3732ZM1.04063 16.6639H23.6089V11.3073C23.6081 10.5903 23.323 9.90289 22.8163 9.39591C22.3095 8.88893 21.6224 8.60376 20.9057 8.60297H3.74283C3.02631 8.60402 2.33946 8.88931 1.8329 9.39626C1.32634 9.90322 1.04142 10.5905 1.04063 11.3073V16.6639Z" fill="#0C4653"/>
<path d="M2.96417 18.5255C2.87009 18.5255 2.77986 18.4881 2.71333 18.4216C2.64681 18.3551 2.60944 18.2648 2.60944 18.1708V17.0316C2.60944 16.9375 2.64681 16.8473 2.71333 16.7808C2.77986 16.7143 2.87009 16.6769 2.96417 16.6769C3.05825 16.6769 3.14848 16.7143 3.215 16.7808C3.28153 16.8473 3.3189 16.9375 3.3189 17.0316V18.1708C3.3189 18.2173 3.30972 18.2635 3.2919 18.3065C3.27407 18.3495 3.24794 18.3886 3.215 18.4216C3.18206 18.4545 3.14296 18.4807 3.09992 18.4985C3.05688 18.5163 3.01075 18.5255 2.96417 18.5255Z" fill="#0C4653"/>
<path d="M21.6339 18.5255C21.5398 18.5255 21.4496 18.4881 21.3831 18.4216C21.3165 18.3551 21.2792 18.2648 21.2792 18.1708V17.0316C21.2792 16.9375 21.3165 16.8473 21.3831 16.7808C21.4496 16.7143 21.5398 16.6769 21.6339 16.6769C21.728 16.6769 21.8182 16.7143 21.8847 16.7808C21.9513 16.8473 21.9886 16.9375 21.9886 17.0316V18.1708C21.9886 18.2648 21.9513 18.3551 21.8847 18.4216C21.8182 18.4881 21.728 18.5255 21.6339 18.5255Z" fill="#0C4653"/>
</g>
<defs>
<clipPath id="clip0_26_4592">
<rect width="24" height="17.98" fill="white" transform="translate(0.322266 0.546021)"/>
</clipPath>
</defs>
</svg>
