<svg width="151" height="151" viewBox="0 0 151 151" fill="none" xmlns="http://www.w3.org/2000/svg">
<path d="M44.7586 73.9353L27.5366 73.8346C26.6493 73.8294 25.9266 74.5451 25.9231 75.4323L25.8544 92.9539C25.8509 93.841 26.568 94.5651 27.4553 94.5703C28.3425 94.5755 29.0652 93.8599 29.0686 92.9727L29.131 77.0583L44.746 77.1496C45.6332 77.1548 46.356 76.4391 46.3594 75.5518C46.3629 74.6646 45.6458 73.9405 44.7586 73.9353Z" fill="#EB6753"/>
<path d="M27.4414 98.1049C26.5541 98.0997 25.8314 98.8153 25.8279 99.7025L25.8194 101.881C25.8159 102.768 26.533 103.492 27.4203 103.498C28.3074 103.503 29.0302 102.787 29.0336 101.9L29.0422 99.7214C29.0457 98.8341 28.3286 98.1101 27.4414 98.1049Z" fill="#EB6753"/>
<path d="M101.179 22.1476C100.59 22.8117 100.653 23.8291 101.316 24.4168L124.771 45.2044C125.434 45.7923 126.449 45.7363 127.039 45.0712C127.628 44.4071 127.565 43.3897 126.902 42.802L103.447 22.0143C102.783 21.4245 101.769 21.4814 101.179 22.1476Z" fill="#EB6753"/>
<path d="M95.1225 16.7842C94.536 17.4483 94.599 18.4637 95.2643 19.0535L96.2423 19.9193C96.9181 20.5131 97.9282 20.4393 98.5112 19.7819C99.0977 19.1178 99.0347 18.1024 98.3694 17.5126L97.3914 16.6468C96.7262 16.0612 95.711 16.118 95.1225 16.7842Z" fill="#EB6753"/>
<path d="M71.5188 30.3135C64.4475 30.2721 58.6821 36.0028 58.6544 43.0741C58.6268 50.1242 64.347 55.9005 71.4183 55.9419C78.4681 55.9831 84.2334 50.274 84.2611 43.2239C84.2888 36.1526 78.5686 30.3547 71.5188 30.3135ZM71.4309 52.7276C66.1382 52.6967 61.848 48.3644 61.8686 43.0929C61.8895 37.7787 66.2135 33.4968 71.5062 33.5278C76.7775 33.5586 81.0676 37.8909 81.0468 43.2051C81.0261 48.4766 76.7022 52.7585 71.4309 52.7276Z" fill="#181A20"/>
<path d="M52.2464 114.331C52.2429 115.231 51.5116 115.934 50.6329 115.928L48.383 115.915C47.4831 115.91 46.7787 115.199 46.7822 114.299C46.7857 113.42 47.4957 112.696 48.3956 112.701L50.6455 112.714C51.5242 112.72 52.2499 113.452 52.2464 114.331Z" fill="#181A20"/>
<path d="M113.859 97.541L98.2319 97.4496C97.3446 97.4444 96.622 98.1601 96.6185 99.0474C96.615 99.9346 97.332 100.659 98.2193 100.664L113.847 100.755C114.734 100.76 115.457 100.045 115.46 99.1576C115.463 98.2703 114.746 97.5462 113.859 97.541Z" fill="#EB6753"/>
<path d="M92.697 97.417L92.3768 97.4152C91.4896 97.41 90.7669 98.1257 90.7634 99.0129C90.7599 99.9001 91.477 100.624 92.3642 100.629L92.6844 100.631C93.5717 100.636 94.2943 99.9208 94.2977 99.0336C94.3012 98.1463 93.5843 97.4222 92.697 97.417Z" fill="#EB6753"/>
<path d="M139.493 106.226L125.158 106.142L125.303 69.0717L130.381 69.1014C135.053 69.1287 137.239 63.3557 133.759 60.271L74.9057 8.11165C73.0053 6.42915 70.1553 6.41247 68.2417 8.07267L43.2563 29.8055L43.2825 23.1412L45.6395 23.155C47.0753 23.1634 48.2369 22.013 48.2424 20.5987L48.2729 12.8203C48.2785 11.4059 47.1259 10.2421 45.6902 10.2337L19.7191 10.0817C18.2835 10.0733 17.1219 11.2236 17.1164 12.638L17.0859 20.4165C17.0803 21.8307 18.2329 22.9947 19.6685 23.0031L22.0471 23.017L21.9479 48.3239L9.02528 59.5413C5.52036 62.6065 7.68349 68.3836 12.3334 68.4108L17.4119 68.4405L17.1296 140.462L11.4939 140.429C10.6154 140.424 9.88405 141.127 9.88052 142.027C9.87708 142.905 10.6028 143.638 11.4813 143.643L11.6099 143.644L139.344 144.391C141.401 144.403 143.078 142.72 143.086 140.663L143.207 109.977C143.215 107.92 141.55 106.238 139.493 106.226ZM20.3026 19.7925L20.3281 13.2996L45.0562 13.4443L45.0307 19.9371L20.3026 19.7925ZM40.0682 23.1224L40.0311 32.5938L25.1732 45.5141L25.2614 23.0358L40.0682 23.1224ZM12.346 65.1965C10.653 65.1866 9.86848 63.0821 11.1371 61.9751L70.3535 10.5065C71.0416 9.91056 72.0916 9.9167 72.7749 10.5207L131.628 62.68C132.888 63.8017 132.108 65.8971 130.393 65.8871L12.346 65.1965ZM38.2826 90.4844L38.0862 140.585L20.3437 140.481L20.6261 68.4593L122.089 69.0529L121.944 106.124L78.4441 105.869L78.5034 90.7197C78.5159 87.5482 75.9332 84.9403 72.7618 84.9217L44.0909 84.754C40.8981 84.7353 38.2951 87.3129 38.2826 90.4844ZM75.2296 105.893C73.4288 106.14 72.0081 107.739 72.001 109.56C71.9725 122.31 71.8382 140.139 71.9215 140.782L41.3005 140.603L41.4969 90.5032C41.5023 89.1103 42.6641 87.96 44.0782 87.9683L72.7492 88.136C74.1421 88.1442 75.2947 89.308 75.2892 90.7009L75.2296 105.893ZM139.873 140.644C139.871 140.944 139.634 141.179 139.356 141.177L75.607 140.804C75.457 140.803 75.1151 140.565 75.1162 140.286L75.2366 109.579C75.2377 109.301 75.5172 109.067 75.7314 109.068C76.9743 109.097 122.273 109.341 139.481 109.441C139.759 109.443 139.994 109.68 139.993 109.958L139.873 140.644Z" fill="#181A20"/>
<path d="M72.7493 88.1359L44.0784 87.9682C42.6642 87.9599 41.5024 89.1102 41.4969 90.5031L41.3005 140.603L71.9215 140.782C71.8382 140.139 71.9725 122.31 72.001 109.56C72.0081 107.739 73.4288 106.14 75.2297 105.893L75.2892 90.7008C75.2947 89.3079 74.1421 88.144 72.7493 88.1359ZM50.633 115.928L48.383 115.915C47.4831 115.91 46.7787 115.199 46.7822 114.299C46.7857 113.42 47.4957 112.696 48.3956 112.701L50.6456 112.714C51.5243 112.72 52.2499 113.452 52.2465 114.331C52.2429 115.231 51.5117 115.934 50.633 115.928Z" fill="url(#paint0_linear_150_1281)"/>
<path d="M20.3274 13.2986L45.0556 13.4432L45.0301 19.936L20.3019 19.7913L20.3274 13.2986Z" fill="url(#paint1_linear_150_1281)"/>
<path d="M40.0682 23.1225L40.0311 32.5938L25.1732 45.5143L25.2614 23.0359L40.0682 23.1225Z" fill="url(#paint2_linear_150_1281)"/>
<path d="M81.0468 43.2052C81.0262 48.4767 76.7023 52.7586 71.4308 52.7278C66.1381 52.6968 61.848 48.3645 61.8687 43.093C61.8895 37.7788 66.2134 33.4969 71.5061 33.5278C76.7775 33.5587 81.0677 37.891 81.0468 43.2052Z" fill="#DDDDDD"/>
<path d="M88.4628 119.321C85.3343 119.303 82.7743 121.838 82.762 124.967C82.7497 128.117 85.2897 130.681 88.4182 130.7C91.5681 130.718 94.1066 128.183 94.1189 125.033C94.1312 121.904 91.6128 119.339 88.4628 119.321ZM88.4308 127.486C87.0808 127.478 85.9709 126.356 85.9763 124.985C85.9816 123.635 87.1002 122.528 88.4502 122.536C89.8217 122.544 90.91 123.664 90.9047 125.014C90.8993 126.385 89.8023 127.494 88.4308 127.486Z" fill="#181A20"/>
<path d="M90.9047 125.014C90.8993 126.385 89.8022 127.494 88.4308 127.486C87.0808 127.478 85.9709 126.356 85.9762 124.985C85.9815 123.635 87.1002 122.528 88.4502 122.536C89.8216 122.544 90.9099 123.664 90.9047 125.014Z" fill="#DDDDDD"/>
<path d="M126.669 119.544C123.541 119.526 120.981 122.061 120.969 125.19C120.957 128.34 123.497 130.905 126.625 130.923C129.753 130.942 132.313 128.407 132.326 125.257C132.338 122.128 129.798 119.563 126.669 119.544ZM126.637 127.709C125.266 127.701 124.178 126.58 124.183 125.209C124.188 123.859 125.286 122.751 126.657 122.759C128.028 122.767 129.116 123.888 129.111 125.238C129.105 126.609 128.009 127.717 126.637 127.709Z" fill="#181A20"/>
<path d="M129.111 125.238C129.105 126.609 128.009 127.717 126.637 127.709C125.266 127.701 124.178 126.58 124.183 125.209C124.188 123.859 125.286 122.751 126.657 122.759C128.029 122.767 129.116 123.888 129.111 125.238Z" fill="#DDDDDD"/>
<path d="M107.575 117.669C109.187 117.678 110.494 118.996 110.488 120.608C110.484 121.495 111.202 122.219 112.089 122.224C112.976 122.229 113.698 121.514 113.702 120.627C113.713 117.803 111.793 115.431 109.195 114.705L109.2 113.512C109.203 112.625 108.486 111.901 107.598 111.896C106.711 111.891 105.988 112.606 105.985 113.493L105.98 114.686C103.376 115.382 101.438 117.731 101.427 120.555C101.414 123.939 104.157 126.708 107.54 126.728C109.152 126.737 110.459 128.057 110.452 129.669C110.446 131.28 109.129 132.582 107.517 132.573C105.906 132.563 104.599 131.246 104.605 129.635C104.609 128.748 103.892 128.023 103.005 128.018C102.118 128.013 101.395 128.729 101.392 129.616C101.38 132.44 103.3 134.811 105.898 135.537L105.894 136.73C105.89 137.617 106.607 138.341 107.494 138.347C108.382 138.352 109.105 137.636 109.109 136.749L109.113 135.556C111.717 134.86 113.655 132.512 113.666 129.688C113.68 126.304 110.936 123.533 107.552 123.514C105.942 123.504 104.635 122.185 104.641 120.574C104.647 118.962 105.964 117.659 107.575 117.669Z" fill="#181A20"/>
<defs>
<linearGradient id="paint0_linear_150_1281" x1="58.4031" y1="88.052" x2="58.0951" y2="140.701" gradientUnits="userSpaceOnUse">
<stop stop-color="#DDDDDD" stop-opacity="0"/>
<stop offset="1" stop-color="#DDDDDD"/>
</linearGradient>
<linearGradient id="paint1_linear_150_1281" x1="32.6915" y1="13.3709" x2="32.6535" y2="19.8636" gradientUnits="userSpaceOnUse">
<stop stop-color="#DDDDDD" stop-opacity="0"/>
<stop offset="1" stop-color="#DDDDDD"/>
</linearGradient>
<linearGradient id="paint2_linear_150_1281" x1="32.6647" y1="23.0792" x2="32.5332" y2="45.5574" gradientUnits="userSpaceOnUse">
<stop stop-color="#DDDDDD" stop-opacity="0"/>
<stop offset="1" stop-color="#DDDDDD"/>
</linearGradient>
</defs>
</svg>
