<svg width="152" height="152" viewBox="0 0 152 152" fill="none" xmlns="http://www.w3.org/2000/svg">
<g clip-path="url(#clip0_150_1344)">
<g clip-path="url(#clip1_150_1344)">
<path d="M58.4816 74.7677L35.6116 74.6339C34.7244 74.6287 34.0017 75.3444 33.9983 76.2317L33.899 101.55C33.8955 102.437 34.6126 103.162 35.4998 103.167C36.3871 103.172 37.1098 102.456 37.1133 101.569L37.2062 77.8576L58.469 77.982C59.3563 77.9872 60.079 77.2716 60.0825 76.3843C60.086 75.497 59.3689 74.7729 58.4816 74.7677Z" fill="#EB6753"/>
<path d="M35.4887 105.986C34.6016 105.981 33.8788 106.696 33.8754 107.583L33.8654 110.136C33.8619 111.023 34.5789 111.747 35.4661 111.753C36.3534 111.758 37.0761 111.042 37.0796 110.155L37.0896 107.602C37.0931 106.715 36.376 105.991 35.4887 105.986Z" fill="#EB6753"/>
<path d="M126.276 42.9875C126.723 42.9901 127.169 42.8085 127.487 42.4484C128.076 41.7843 128.014 40.7689 127.348 40.1791L109.185 24.0786C108.521 23.4888 107.504 23.5498 106.918 24.2119C106.329 24.8759 106.391 25.8913 107.056 26.4811L125.219 42.5816C125.523 42.8512 125.901 42.9853 126.276 42.9875Z" fill="#EB6753"/>
<path d="M103.712 22.9879C104.159 22.9905 104.603 22.8089 104.922 22.4487C105.511 21.7847 105.449 20.7693 104.785 20.1795L103.987 19.4717C103.322 18.8818 102.308 18.9429 101.719 19.6049C101.13 20.269 101.192 21.2843 101.856 21.8741L102.654 22.582C102.958 22.8516 103.335 22.9857 103.712 22.9879Z" fill="#EB6753"/>
<path d="M126.497 87.034L126.564 69.9985L135.135 70.0486C139.785 70.0758 141.972 64.3242 138.492 61.2395L79.6385 9.08022C77.7594 7.39771 74.8879 7.38091 72.9956 9.04136L47.9889 30.7524L48.0151 24.0883L50.3937 24.1022C51.8079 24.1105 52.9694 22.9815 52.9751 21.5458L53.0055 13.7672C53.0111 12.353 51.8585 11.1892 50.4444 11.1809L24.4519 11.0288C23.0376 11.0206 21.876 12.1709 21.8705 13.5851L21.84 21.3636C21.8344 22.7994 22.987 23.9419 24.4013 23.9501L26.7798 23.964L26.6806 49.271L13.7793 60.51C10.253 63.5537 12.4161 69.3307 17.066 69.3579L25.6588 69.4082L25.3764 141.429L20.8337 141.403C19.955 141.398 19.2237 142.121 19.2203 143C19.2168 143.878 19.9424 144.611 20.8211 144.617L130.791 145.26C131.69 145.265 132.401 144.54 132.404 143.662C132.408 142.783 131.703 142.051 130.804 142.046L126.282 142.02L126.349 124.77C134.203 122.137 139.91 114.734 139.944 105.97C139.978 97.2274 134.33 89.7585 126.497 87.034ZM25.0567 20.7396L25.0821 14.2469L49.7888 14.3914L49.7633 20.8842L25.0567 20.7396ZM44.8007 24.0909L44.7636 33.5622L29.9058 46.4612L29.9939 24.0043L44.8007 24.0909ZM17.0786 66.1436C15.3858 66.1337 14.6013 64.029 15.8698 62.9222L75.1076 11.4538C75.4517 11.1557 75.8809 11.0082 76.3094 11.0107C76.7379 11.0132 77.1659 11.1658 77.5076 11.4678L136.36 63.6271C137.621 64.7487 136.841 66.8442 135.148 66.8343L17.0786 66.1436ZM123.068 142.001C84.1968 141.773 86.511 141.787 28.5907 141.448L28.873 69.427L123.35 69.9797L123.287 86.2011C114.763 84.7583 105.896 89.0778 101.986 97.2837L77.6003 97.1411L77.6281 90.0482C77.6428 86.2982 74.6334 83.2591 70.8834 83.2372C67.1763 83.2155 64.1215 86.2406 64.1069 89.9691L63.9848 121.126C63.9703 124.812 66.9368 127.915 70.7082 127.937C74.4581 127.959 77.4913 124.934 77.5059 121.205L77.5338 114.091L101.92 114.234C105.276 121.432 112.416 125.781 119.916 125.825C120.945 125.831 122.275 125.71 123.132 125.565L123.068 142.001ZM100.71 111.012L67.2395 110.817L67.2807 100.295C67.2807 100.295 71.2663 100.34 100.752 100.491C99.9038 103.593 99.7601 107.428 100.71 111.012ZM74.3196 114.072L74.2917 121.186C74.284 123.136 72.6921 124.734 70.7208 124.722C68.7921 124.711 67.1913 123.117 67.199 121.145L67.2269 114.031L74.3196 114.072ZM67.2933 97.0808L67.3211 89.9879C67.3289 88.0165 68.9208 86.44 70.8708 86.4514C72.8421 86.463 74.4215 88.0793 74.4138 90.0294L74.386 97.1223L67.2933 97.0808ZM119.929 122.61C115.579 122.585 111.644 120.869 108.654 118.13C105.686 115.392 103.708 111.608 103.317 107.449C102.37 97.5431 110.268 89.082 120.06 89.1393C129.232 89.193 136.766 96.7157 136.73 105.951C136.694 115.294 129.015 122.663 119.929 122.61Z" fill="#181A20"/>
<path d="M120.06 89.1393C110.268 89.082 102.37 97.543 103.317 107.449C103.708 111.608 105.686 115.392 108.654 118.13C111.643 120.87 115.579 122.585 119.929 122.61C129.015 122.663 136.694 115.294 136.73 105.951C136.766 96.7157 129.232 89.1929 120.06 89.1393ZM124.274 113.035C120.331 113.012 117.151 109.78 117.167 105.859C117.182 101.916 120.388 98.7198 124.33 98.7429C128.272 98.766 131.475 101.999 131.459 105.942C131.444 109.863 128.216 113.058 124.274 113.035Z" fill="url(#paint0_linear_150_1344)"/>
<path d="M74.4138 90.0293L74.386 97.1222L67.2933 97.0807L67.3211 89.9878C67.3289 88.0164 68.9208 86.4399 70.8707 86.4513C72.8421 86.4629 74.4215 88.0792 74.4138 90.0293Z" fill="#DDDDDD"/>
<path d="M74.3196 114.072L74.2917 121.186C74.284 123.136 72.6921 124.734 70.7207 124.722C68.7921 124.711 67.1913 123.116 67.199 121.144L67.2269 114.031L74.3196 114.072Z" fill="#DDDDDD"/>
<path d="M25.0817 14.2478L49.7884 14.3923L49.7629 20.8852L25.0562 20.7407L25.0817 14.2478Z" fill="url(#paint1_linear_150_1344)"/>
<path d="M44.8007 24.091L44.7636 33.5622L29.9058 46.4613L29.9939 24.0044L44.8007 24.091Z" fill="url(#paint2_linear_150_1344)"/>
<path d="M76.2508 31.4106C69.2651 31.3698 63.543 37.0363 63.5156 44.022C63.4882 51.0077 69.1658 56.7195 76.1514 56.7603C83.137 56.8012 88.8378 51.156 88.8652 44.1703C88.8926 37.1846 83.2364 31.4515 76.2508 31.4106ZM76.164 53.5461C70.9569 53.5156 66.7094 49.2479 66.7299 44.0408C66.7504 38.8123 71.0311 34.5944 76.2382 34.6249C81.4452 34.6554 85.6714 38.923 85.6509 44.1515C85.6306 49.3586 81.3711 53.5765 76.164 53.5461Z" fill="#181A20"/>
<path d="M85.651 44.1516C85.6306 49.3587 81.3711 53.5767 76.164 53.5462C70.957 53.5158 66.7094 49.248 66.7299 44.0409C66.7504 38.8123 71.0312 34.5945 76.2382 34.625C81.4452 34.6554 85.6715 38.923 85.651 44.1516Z" fill="#DDDDDD"/>
<path d="M86.2857 122.513L87.2619 122.519C88.1492 122.524 88.8719 121.809 88.8754 120.921C88.8789 120.034 88.1618 119.31 87.2745 119.305L86.2983 119.299C85.4111 119.294 84.6884 120.01 84.685 120.897C84.6815 121.785 85.3985 122.508 86.2857 122.513Z" fill="#EB6753"/>
<path d="M92.73 122.551L101.574 122.603C102.462 122.608 103.185 121.893 103.188 121.005C103.192 120.118 102.474 119.394 101.586 119.389L92.7425 119.337C91.8553 119.332 91.1326 120.048 91.1291 120.935C91.1256 121.823 91.8427 122.546 92.73 122.551Z" fill="#EB6753"/>
<path d="M124.33 98.7429C120.388 98.7199 117.182 101.916 117.167 105.859C117.151 109.78 120.332 113.012 124.274 113.035C128.216 113.058 131.444 109.863 131.459 105.942C131.475 101.999 128.272 98.766 124.33 98.7429ZM124.287 109.821C122.122 109.809 120.372 108.041 120.38 105.877C120.389 103.712 122.153 101.945 124.318 101.957C126.482 101.97 128.253 103.758 128.244 105.923C128.236 108.087 126.451 109.834 124.287 109.821Z" fill="#181A20"/>
</g>
</g>
<defs>
<linearGradient id="paint0_linear_150_1344" x1="120.051" y1="89.1392" x2="119.855" y2="122.61" gradientUnits="userSpaceOnUse">
<stop stop-color="#DDDDDD" stop-opacity="0"/>
<stop offset="1" stop-color="#DDDDDD"/>
</linearGradient>
<linearGradient id="paint1_linear_150_1344" x1="37.435" y1="14.3201" x2="37.397" y2="20.8128" gradientUnits="userSpaceOnUse">
<stop stop-color="#DDDDDD" stop-opacity="0"/>
<stop offset="1" stop-color="#DDDDDD"/>
</linearGradient>
<linearGradient id="paint2_linear_150_1344" x1="37.3974" y1="24.0477" x2="37.266" y2="46.5044" gradientUnits="userSpaceOnUse">
<stop stop-color="#DDDDDD" stop-opacity="0"/>
<stop offset="1" stop-color="#DDDDDD"/>
</linearGradient>
<clipPath id="clip0_150_1344">
<rect width="150" height="150" fill="white" transform="matrix(0.999983 0.0058499 -0.00392004 0.999992 1.36514 0.93457)"/>
</clipPath>
<clipPath id="clip1_150_1344">
<rect width="150" height="150" fill="white" transform="matrix(0.999983 0.0058499 -0.00392004 0.999992 1.36514 0.93457)"/>
</clipPath>
</defs>
</svg>
