<svg width="150" height="152" viewBox="0 0 150 152" fill="none" xmlns="http://www.w3.org/2000/svg">
<path d="M9.10375 96.6655C9.99103 96.6707 10.7137 95.9551 10.7172 95.0678L10.72 94.35C10.7235 93.4627 10.0064 92.7387 9.11917 92.7335C8.23191 92.7283 7.50923 93.4439 7.50575 94.3312L7.50294 95.049C7.49946 95.9363 8.2165 96.6603 9.10375 96.6655Z" fill="#EB6753"/>
<path d="M7.3898 123.913C7.38632 124.8 8.10335 125.524 8.99061 125.529C9.87788 125.534 10.6006 124.819 10.6041 123.932L10.6953 100.649C10.6988 99.7616 9.98175 99.0375 9.09448 99.0324C8.20722 99.0272 7.48454 99.7428 7.48107 100.63L7.3898 123.913Z" fill="#EB6753"/>
<path d="M103.393 27.7219C102.727 27.1321 101.714 27.191 101.123 27.8551C100.535 28.5193 100.597 29.5345 101.261 30.1243L119.788 46.5472C120.452 47.1351 121.467 47.079 122.056 46.4139C122.645 45.7499 122.582 44.7345 121.919 44.1447L103.393 27.7219Z" fill="#EB6753"/>
<path d="M96.934 21.9982C96.2688 21.4125 95.2556 21.4715 94.6649 22.1355C94.0785 22.7997 94.1415 23.815 94.8068 24.4048L95.9558 25.4223C96.6316 26.0161 97.6417 25.9423 98.2248 25.2849C98.8113 24.6208 98.7483 23.6054 98.0831 23.0156L96.934 21.9982Z" fill="#EB6753"/>
<path d="M121.388 88.8326L121.407 84.0326L123.271 84.0435C124.149 84.0487 124.881 83.3458 124.884 82.4458C124.888 81.5672 124.161 80.8345 123.283 80.8294L120.391 80.8124L120.434 69.691L125.298 69.7195C129.841 69.7461 132.006 64.1229 128.589 61.1028L71.6154 10.6045C69.7789 8.96518 66.9718 8.94876 65.1012 10.5664L40.9975 31.5114L41.0221 25.2329L43.2722 25.246C44.6649 25.2542 45.8051 24.1252 45.8107 22.7109L45.8401 15.1894C45.8457 13.7752 44.7144 12.6328 43.3217 12.6246L18.1435 12.4774C16.7506 12.4692 15.6106 13.5984 15.6051 15.0125L15.5756 22.534C15.57 23.9483 16.7012 25.0906 18.094 25.0988L20.3654 25.112L20.2696 49.5405L7.77704 60.3961C4.35813 63.3762 6.45741 69.0243 11.0002 69.0508L15.8644 69.0793L15.5919 138.593C13.9203 138.626 12.206 138.637 10.5345 138.67C9.63423 138.708 8.94579 139.433 8.96366 140.311C8.98167 141.19 9.6862 141.88 10.5647 141.885L10.5861 141.886C11.6149 141.87 115.992 142.544 115.992 142.523C130.863 142.503 142.953 130.445 143.012 115.531C143.063 102.417 133.763 91.4121 121.388 88.8326ZM18.7923 21.8885L18.8166 15.6956L42.6233 15.8349L42.599 22.0278L18.7923 21.8885ZM37.8079 25.2141L37.7722 34.3211L23.495 46.7307L23.5796 25.1308L37.8079 25.2141ZM11.0128 65.8366C9.4271 65.8273 8.68488 63.8514 9.88896 62.8084L67.2131 12.9788C67.8796 12.4255 68.8439 12.4311 69.4846 12.9921L126.458 63.4904C127.654 64.5474 126.897 66.5145 125.311 66.5052L11.0128 65.8366ZM68.7341 138.84L36.1204 138.649L36.3096 90.392C36.3149 89.042 37.412 87.9769 38.7618 87.9848L66.5114 88.1471C67.8398 88.1549 68.9285 89.2328 68.9232 90.5828L68.7341 138.84ZM71.9483 138.859L72.1375 90.6016C72.1497 87.4945 69.6311 84.9512 66.524 84.933L38.7744 84.7706C35.6674 84.7525 33.1075 87.2661 33.0953 90.3732L32.9062 138.63L18.8064 138.548L19.0786 69.1194L117.22 69.6935L117.177 80.7936L108.67 80.7439C107.769 80.7386 107.059 81.463 107.055 82.3415C107.052 83.2415 107.756 83.9528 108.657 83.958L110.606 83.9694L110.587 88.7694C98.1495 91.2253 88.8059 102.335 88.7554 115.213L88.7553 115.234C88.737 125.371 94.4445 134.404 102.869 139.039L71.9483 138.859ZM118.192 84.0138L118.175 88.3638C117.018 88.2498 115.068 88.2384 113.804 88.3382L113.821 83.9882L118.192 84.0138ZM115.811 139.308C102.44 139.23 91.9188 128.196 91.9696 115.232C92.0211 102.118 102.907 91.1887 116.406 91.4821C129.262 91.793 139.849 102.355 139.798 115.512C139.746 128.712 128.989 139.385 115.811 139.308Z" fill="#181A20"/>
<path d="M118.192 84.0139L118.175 88.3638C117.018 88.2499 115.068 88.2385 113.804 88.3382L113.821 83.9883L118.192 84.0139Z" fill="#DDDDDD"/>
<path d="M18.8165 15.6958L42.6232 15.8351L42.5989 22.0279L18.7922 21.8887L18.8165 15.6958Z" fill="url(#paint0_linear_150_1314)"/>
<path d="M37.8079 25.2141L37.7722 34.3212L23.495 46.7308L23.5797 25.1309L37.8079 25.2141Z" fill="url(#paint1_linear_150_1314)"/>
<path d="M66.5114 88.1473L38.7619 87.985C37.412 87.9771 36.3149 89.0421 36.3096 90.3921L36.1204 138.649L68.7341 138.84L68.9232 90.5829C68.9285 89.2329 67.84 88.1551 66.5114 88.1473ZM62.3556 115.145L60.1699 115.132C59.27 115.127 58.5656 114.416 58.5691 113.516C58.5725 112.637 59.2826 111.912 60.1825 111.917L62.3682 111.93C63.2467 111.935 63.9724 112.669 63.969 113.548C63.9655 114.448 63.2341 115.15 62.3556 115.145Z" fill="url(#paint2_linear_150_1314)"/>
<path d="M68.3169 32.0786C61.4385 32.0383 55.8239 37.5984 55.7969 44.477C55.77 51.3341 61.3409 56.9381 68.2193 56.9784C75.0764 57.0185 80.6696 51.4797 80.6965 44.6227C80.7234 37.744 75.174 32.1187 68.3169 32.0786ZM68.2319 53.7641C63.1321 53.7343 58.9912 49.5743 59.0111 44.4958C59.0311 39.3959 63.2045 35.263 68.3043 35.2928C73.3829 35.3226 77.5022 39.5038 77.4822 44.6039C77.4623 49.6823 73.3105 53.7938 68.2319 53.7641Z" fill="#181A20"/>
<path d="M77.4822 44.6037C77.4623 49.6823 73.3105 53.7937 68.2319 53.764C63.132 53.7342 58.9912 49.5742 59.0111 44.4957C59.0311 39.3957 63.2045 35.2628 68.3043 35.2927C73.3829 35.3224 77.5022 39.5037 77.4822 44.6037Z" fill="#DDDDDD"/>
<path d="M63.969 113.548C63.9655 114.448 63.2341 115.15 62.3556 115.145L60.1698 115.132C59.27 115.127 58.5655 114.416 58.5691 113.516C58.5725 112.637 59.2826 111.912 60.1824 111.917L62.3682 111.93C63.2467 111.935 63.9724 112.669 63.969 113.548Z" fill="#181A20"/>
<path d="M95.212 90.2404C95.5573 90.2424 95.9073 90.1335 96.2032 89.903C96.4508 89.7119 96.7028 89.5209 96.9567 89.3382C97.6765 88.8193 97.8374 87.8157 97.3191 87.0949C96.7988 86.374 95.795 86.207 95.0751 86.7281C94.7877 86.9357 94.5064 87.1475 94.2293 87.3635C93.5283 87.9056 93.4029 88.9156 93.9485 89.6178C94.2629 90.0235 94.7349 90.2376 95.212 90.2404Z" fill="#EB6753"/>
<path d="M82.5277 109.672C82.6406 109.698 82.7535 109.708 82.8665 109.709C83.6072 109.713 84.2768 109.201 84.441 108.448C85.6769 102.791 88.4429 97.5566 92.4419 93.3131C93.0513 92.6679 93.0197 91.6507 92.3734 91.0421C91.7271 90.4314 90.7119 90.4611 90.1026 91.1062C85.7044 95.7744 82.66 101.533 81.3005 107.756C81.1109 108.624 81.6599 109.481 82.5277 109.672Z" fill="#EB6753"/>
<path d="M115.969 97.1609C115.081 97.1557 114.36 97.8713 114.356 98.7586C114.353 99.6459 115.069 100.37 115.957 100.375C124.229 100.424 130.932 107.193 130.9 115.465C130.867 123.745 124.111 130.445 115.839 130.396C110.559 130.365 105.772 127.641 103.038 123.109C102.578 122.351 101.592 122.105 100.83 122.561C100.07 123.019 99.8261 124.007 100.285 124.768C103.606 130.268 109.417 133.573 115.827 133.61C125.87 133.669 134.074 125.537 134.114 115.484C134.153 105.439 126.013 97.2196 115.969 97.1609Z" fill="#181A20"/>
<path d="M117.502 112.703L117.527 106.253C117.53 105.375 116.825 104.642 115.926 104.636C115.047 104.631 114.315 105.356 114.312 106.234L114.287 112.684C112.013 113.357 110.333 115.447 110.323 117.954C110.311 121.019 112.787 123.518 115.852 123.536C118.916 123.554 121.433 121.084 121.445 118.019C121.455 115.512 119.792 113.402 117.502 112.703ZM115.865 120.322C114.579 120.315 113.533 119.259 113.538 117.973C113.543 116.688 114.597 115.622 115.883 115.629C117.168 115.637 118.236 116.715 118.231 118C118.226 119.286 117.15 120.33 115.865 120.322Z" fill="#181A20"/>
<path d="M118.231 118C118.226 119.286 117.15 120.33 115.865 120.322C114.579 120.315 113.533 119.259 113.538 117.973C113.543 116.687 114.597 115.622 115.883 115.629C117.168 115.637 118.236 116.714 118.231 118Z" fill="#DDDDDD"/>
<defs>
<linearGradient id="paint0_linear_150_1314" x1="30.7199" y1="15.7654" x2="30.6837" y2="21.9582" gradientUnits="userSpaceOnUse">
<stop stop-color="#DDDDDD" stop-opacity="0"/>
<stop offset="1" stop-color="#DDDDDD"/>
</linearGradient>
<linearGradient id="paint1_linear_150_1314" x1="30.6937" y1="25.1725" x2="30.5674" y2="46.7722" gradientUnits="userSpaceOnUse">
<stop stop-color="#DDDDDD" stop-opacity="0"/>
<stop offset="1" stop-color="#DDDDDD"/>
</linearGradient>
<linearGradient id="paint2_linear_150_1314" x1="52.6259" y1="88.0661" x2="52.3295" y2="138.744" gradientUnits="userSpaceOnUse">
<stop stop-color="#DDDDDD" stop-opacity="0"/>
<stop offset="1" stop-color="#DDDDDD"/>
</linearGradient>
</defs>
</svg>
