<svg width="44" height="42" viewBox="0 0 44 42" fill="none" xmlns="http://www.w3.org/2000/svg">
<path d="M40.3769 21.1314C40.3769 19.6401 40.2489 18.5519 39.9718 17.4233H21.9547V24.1543H32.5304C32.3172 25.8271 31.1658 28.3462 28.6071 30.0389L28.5713 30.2643L34.2679 34.4354L34.6626 34.4726C38.2873 31.3086 40.3769 26.6533 40.3769 21.1314" fill="#4285F4"/>
<path d="M21.9536 38.8664C27.1347 38.8664 31.4844 37.2541 34.6614 34.4731L28.606 30.0393C26.9855 31.1074 24.8106 31.8531 21.9536 31.8531C16.879 31.8531 12.572 28.6891 11.0366 24.3159L10.8116 24.334L4.88813 28.6669L4.81067 28.8704C7.96629 34.7954 14.4482 38.8664 21.9536 38.8664Z" fill="#34A853"/>
<path d="M11.0378 24.3158C10.6326 23.1873 10.3982 21.978 10.3982 20.7286C10.3982 19.479 10.6326 18.2699 11.0164 17.1414L11.0057 16.901L5.00799 12.4985L4.81176 12.5868C3.51117 15.0454 2.76489 17.8064 2.76489 20.7286C2.76489 23.6507 3.51117 26.4116 4.81176 28.8703L11.0378 24.3158" fill="#FBBC05"/>
<path d="M21.9537 9.60445C25.557 9.60445 27.9877 11.0756 29.3737 12.305L34.7895 7.30707C31.4633 4.38492 27.1349 2.59131 21.9537 2.59131C14.4482 2.59131 7.9663 6.66215 4.81067 12.587L11.0154 17.1416C12.572 12.7685 16.879 9.60445 21.9537 9.60445" fill="#EB4335"/>
</svg>
