<svg width="24" height="25" viewBox="0 0 24 25" fill="none" xmlns="http://www.w3.org/2000/svg">
<path d="M8.93449 3.86556C8.15622 3.08728 7.10065 2.65005 6 2.65005C4.89935 2.65005 3.84378 3.08728 3.06551 3.86556C2.28723 4.64383 1.85 5.6994 1.85 6.80005C1.85 7.9007 2.28723 8.95627 3.06551 9.73454C3.84378 10.5128 4.89935 10.95 6 10.95H7.85V14.65H6C4.89935 14.65 3.84378 15.0873 3.06551 15.8656C2.28723 16.6438 1.85 17.6994 1.85 18.8C1.85 19.9007 2.28723 20.9563 3.06551 21.7345C3.84378 22.5128 4.89935 22.95 6 22.95C7.10065 22.95 8.15622 22.5128 8.93449 21.7345C9.71277 20.9563 10.15 19.9007 10.15 18.8V16.95H13.85V18.8C13.85 19.9007 14.2872 20.9563 15.0655 21.7345C15.8438 22.5128 16.8994 22.95 18 22.95C19.1006 22.95 20.1562 22.5128 20.9345 21.7345C21.7128 20.9563 22.15 19.9007 22.15 18.8C22.15 17.6994 21.7128 16.6438 20.9345 15.8656C20.1562 15.0873 19.1006 14.65 18 14.65H16.15V10.95H18C19.1006 10.95 20.1562 10.5128 20.9345 9.73454C21.7128 8.95627 22.15 7.9007 22.15 6.80005C22.15 5.6994 21.7128 4.64383 20.9345 3.86556C20.1562 3.08728 19.1006 2.65005 18 2.65005C16.8994 2.65005 15.8438 3.08728 15.0655 3.86556C14.2872 4.64383 13.85 5.6994 13.85 6.80005V8.65005H10.15V6.80005C10.15 5.6994 9.71277 4.64383 8.93449 3.86556ZM16.6919 20.1082C16.3449 19.7613 16.15 19.2907 16.15 18.8V16.95H18C18.4907 16.95 18.9612 17.145 19.3081 17.4919C19.6551 17.8388 19.85 18.3094 19.85 18.8C19.85 19.2907 19.6551 19.7613 19.3081 20.1082C18.9612 20.4551 18.4907 20.65 18 20.65C17.5093 20.65 17.0388 20.4551 16.6919 20.1082ZM10.15 14.65V10.95H13.85V14.65H10.15ZM4.69185 17.4919C5.03879 17.145 5.50935 16.95 6 16.95H7.85V18.8C7.85 19.2907 7.65509 19.7613 7.30815 20.1082C6.96121 20.4551 6.49065 20.65 6 20.65C5.50935 20.65 5.03879 20.4551 4.69185 20.1082C4.34491 19.7613 4.15 19.2907 4.15 18.8C4.15 18.3094 4.34491 17.8388 4.69185 17.4919ZM7.30815 5.4919C7.65509 5.83884 7.85 6.3094 7.85 6.80005V8.65005H6C5.50935 8.65005 5.03879 8.45514 4.69185 8.1082C4.34491 7.76125 4.15 7.2907 4.15 6.80005C4.15 6.3094 4.34491 5.83884 4.69185 5.4919C5.03879 5.14496 5.50935 4.95005 6 4.95005C6.49065 4.95005 6.96121 5.14496 7.30815 5.4919ZM19.3081 8.1082C18.9612 8.45514 18.4907 8.65005 18 8.65005H16.15V6.80005C16.15 6.3094 16.3449 5.83884 16.6919 5.4919C17.0388 5.14496 17.5093 4.95005 18 4.95005C18.4907 4.95005 18.9612 5.14496 19.3081 5.4919C19.6551 5.83884 19.85 6.3094 19.85 6.80005C19.85 7.2907 19.6551 7.76125 19.3081 8.1082Z" fill="#757575" stroke="#757575" stroke-width="0.3"/>
</svg>
