<svg width="24" height="25" viewBox="0 0 24 25" fill="none" xmlns="http://www.w3.org/2000/svg">
<path d="M11 18.8H13V16.8H11V18.8ZM12 2.80005C10.6868 2.80005 9.38642 3.05871 8.17317 3.56125C6.95991 4.0638 5.85752 4.8004 4.92893 5.72898C3.05357 7.60434 2 10.1479 2 12.8C2 15.4522 3.05357 17.9958 4.92893 19.8711C5.85752 20.7997 6.95991 21.5363 8.17317 22.0388C9.38642 22.5414 10.6868 22.8 12 22.8C14.6522 22.8 17.1957 21.7465 19.0711 19.8711C20.9464 17.9958 22 15.4522 22 12.8C22 11.4868 21.7413 10.1865 21.2388 8.97321C20.7362 7.75996 19.9997 6.65757 19.0711 5.72898C18.1425 4.8004 17.0401 4.0638 15.8268 3.56125C14.6136 3.05871 13.3132 2.80005 12 2.80005ZM12 20.8C7.59 20.8 4 17.21 4 12.8C4 8.39005 7.59 4.80005 12 4.80005C16.41 4.80005 20 8.39005 20 12.8C20 17.21 16.41 20.8 12 20.8ZM12 6.80005C10.9391 6.80005 9.92172 7.22148 9.17157 7.97162C8.42143 8.72177 8 9.73918 8 10.8H10C10 10.2696 10.2107 9.76091 10.5858 9.38584C10.9609 9.01076 11.4696 8.80005 12 8.80005C12.5304 8.80005 13.0391 9.01076 13.4142 9.38584C13.7893 9.76091 14 10.2696 14 10.8C14 12.8 11 12.55 11 15.8H13C13 13.55 16 13.3 16 10.8C16 9.73918 15.5786 8.72177 14.8284 7.97162C14.0783 7.22148 13.0609 6.80005 12 6.80005Z" fill="#757575"/>
</svg>
