<svg width="25" height="25" viewBox="0 0 25 25" fill="none" xmlns="http://www.w3.org/2000/svg">
<path d="M21.0188 7.475C21.0208 9.40499 19.4524 10.9766 17.5224 10.9786C15.5924 10.9806 14.0208 9.41225 14.0188 7.48225C14.0168 5.55225 15.5852 3.98063 17.5152 3.97863C19.4452 3.97662 21.0168 5.545 21.0188 7.475ZM19.0243 12.7671C18.5244 12.8976 18.0245 12.9781 17.5245 12.9786C16.0666 12.9775 14.6686 12.3986 13.6367 11.3688C12.6047 10.339 12.023 8.9422 12.0188 7.48433C12.0173 6.01433 12.5959 4.68373 13.5149 3.69277C13.3332 3.4705 13.1042 3.29157 12.8446 3.16901C12.5849 3.04645 12.3012 2.98336 12.0142 2.98433C10.9142 2.98547 10.0151 3.8864 10.0162 4.9864L10.0165 5.2764C7.04744 6.15948 5.02028 8.89158 5.02349 11.9916L5.02971 17.9916L3.03178 19.9936L3.03282 20.9936L21.0328 20.975L21.0318 19.975L19.0297 17.9771L19.0243 12.7671ZM12.0359 23.9843C13.1459 23.9832 14.035 23.0922 14.0339 21.9822L10.0339 21.9864C10.0344 22.5168 10.2456 23.0253 10.6211 23.4C10.9966 23.7747 11.5055 23.9849 12.0359 23.9843Z" fill="#0A0A0A"/>
<circle cx="17.5188" cy="7.47879" r="3.5" transform="rotate(-0.0593957 17.5188 7.47879)" fill="#0B5565"/>
</svg>
