<svg width="24" height="25" viewBox="0 0 24 25" fill="none" xmlns="http://www.w3.org/2000/svg">
<path d="M16 2.80005C13.24 2.80005 11 5.04005 11 7.80005C11 10.56 13.24 12.8 16 12.8C18.76 12.8 21 10.56 21 7.80005C21 5.04005 18.76 2.80005 16 2.80005ZM16 10.8C14.34 10.8 13 9.46005 13 7.80005C13 6.14005 14.34 4.80005 16 4.80005C17.66 4.80005 19 6.14005 19 7.80005C19 9.46005 17.66 10.8 16 10.8ZM19 16.8H17C17 15.6 16.25 14.52 15.13 14.1L8.97 11.8H1V22.8H7V21.36L14 23.3L22 20.8V19.8C22 18.14 20.66 16.8 19 16.8ZM5 20.8H3V13.8H5V20.8ZM13.97 21.21L7 19.3V13.8H8.61L14.43 15.97C14.77 16.1 15 16.43 15 16.8C15 16.8 13 16.75 12.7 16.65L10.32 15.86L9.69 17.76L12.07 18.55C12.58 18.72 13.11 18.8 13.65 18.8H19C19.39 18.8 19.74 19.04 19.9 19.37L13.97 21.21Z" fill="#757575"/>
</svg>
