<svg width="14" height="13" viewBox="0 0 14 13" fill="none" xmlns="http://www.w3.org/2000/svg">
<path d="M5.68479 0.0536549C6.61678 0.0526513 7.53049 0.312151 8.32283 0.802869C9.11516 1.29359 9.75457 1.99599 10.1689 2.83081C10.5832 3.66563 10.756 4.59964 10.6677 5.52743C10.5794 6.45522 10.2335 7.33987 9.66912 8.08153L12.8344 11.2416C12.9541 11.3614 13.0237 11.5223 13.029 11.6916C13.0344 11.8609 12.9751 12.0259 12.8632 12.1531C12.7513 12.2802 12.5952 12.36 12.4266 12.3763C12.258 12.3925 12.0895 12.344 11.9554 12.2405L11.8927 12.1852L8.7261 9.02651C8.09526 9.50856 7.3587 9.83346 6.57737 9.97432C5.79604 10.1152 4.99239 10.068 4.23293 9.83656C3.47347 9.60516 2.78004 9.19624 2.21 8.64363C1.63996 8.09101 1.20971 7.4106 0.954856 6.65869C0.699999 5.90677 0.62786 5.10498 0.744409 4.31965C0.860958 3.53432 1.16284 2.78804 1.62509 2.14255C2.08733 1.49706 2.69664 0.970924 3.40259 0.607678C4.10855 0.244433 4.89086 0.0545198 5.68479 0.0536549ZM5.68617 1.38699C4.71371 1.388 3.78148 1.77527 3.09456 2.46362C2.40764 3.15196 2.0223 4.08499 2.02331 5.05745C2.02432 6.02991 2.41159 6.96214 3.09994 7.64906C3.78829 8.33598 4.72132 8.72132 5.69378 8.72032C6.66624 8.71931 7.59847 8.33203 8.28539 7.64369C8.97231 6.95534 9.35765 6.02231 9.35664 5.04985C9.35563 4.07739 8.96836 3.14516 8.28001 2.45824C7.59167 1.77132 6.65863 1.38598 5.68617 1.38699Z" fill="#404040"/>
</svg>
