<svg width="24" height="25" viewBox="0 0 24 25" fill="none" xmlns="http://www.w3.org/2000/svg">
<path d="M11.9999 8.80005C13.0608 8.80005 14.0782 9.22148 14.8283 9.97162C15.5785 10.7218 15.9999 11.7392 15.9999 12.8C15.9999 13.8609 15.5785 14.8783 14.8283 15.6285C14.0782 16.3786 13.0608 16.8 11.9999 16.8C10.939 16.8 9.92161 16.3786 9.17147 15.6285C8.42132 14.8783 7.99989 13.8609 7.99989 12.8C7.99989 11.7392 8.42132 10.7218 9.17147 9.97162C9.92161 9.22148 10.939 8.80005 11.9999 8.80005ZM11.9999 10.8C11.4695 10.8 10.9608 11.0108 10.5857 11.3858C10.2106 11.7609 9.99989 12.2696 9.99989 12.8C9.99989 13.3305 10.2106 13.8392 10.5857 14.2143C10.9608 14.5893 11.4695 14.8 11.9999 14.8C12.5303 14.8 13.039 14.5893 13.4141 14.2143C13.7892 13.8392 13.9999 13.3305 13.9999 12.8C13.9999 12.2696 13.7892 11.7609 13.4141 11.3858C13.039 11.0108 12.5303 10.8 11.9999 10.8ZM9.99989 22.8C9.74989 22.8 9.53989 22.62 9.49989 22.38L9.12989 19.73C8.49989 19.48 7.95989 19.14 7.43989 18.74L4.94989 19.75C4.72989 19.83 4.45989 19.75 4.33989 19.53L2.33989 16.07C2.27869 15.967 2.25711 15.8452 2.2792 15.7274C2.30128 15.6096 2.36552 15.5039 2.45989 15.43L4.56989 13.77L4.49989 12.8L4.56989 11.8L2.45989 10.17C2.36552 10.0962 2.30128 9.99047 2.2792 9.87268C2.25711 9.75489 2.27869 9.63308 2.33989 9.53005L4.33989 6.07005C4.45989 5.85005 4.72989 5.76005 4.94989 5.85005L7.43989 6.85005C7.95989 6.46005 8.49989 6.12005 9.12989 5.87005L9.49989 3.22005C9.53989 2.98005 9.74989 2.80005 9.99989 2.80005H13.9999C14.2499 2.80005 14.4599 2.98005 14.4999 3.22005L14.8699 5.87005C15.4999 6.12005 16.0399 6.46005 16.5599 6.85005L19.0499 5.85005C19.2699 5.76005 19.5399 5.85005 19.6599 6.07005L21.6599 9.53005C21.7899 9.75005 21.7299 10.02 21.5399 10.17L19.4299 11.8L19.4999 12.8L19.4299 13.8L21.5399 15.43C21.7299 15.58 21.7899 15.85 21.6599 16.07L19.6599 19.53C19.5399 19.75 19.2699 19.84 19.0499 19.75L16.5599 18.75C16.0399 19.14 15.4999 19.48 14.8699 19.73L14.4999 22.38C14.4599 22.62 14.2499 22.8 13.9999 22.8H9.99989ZM11.2499 4.80005L10.8799 7.41005C9.67989 7.66005 8.61989 8.30005 7.84989 9.19005L5.43989 8.15005L4.68989 9.45005L6.79989 11C6.39989 12.1667 6.39989 13.4334 6.79989 14.6L4.67989 16.16L5.42989 17.46L7.85989 16.42C8.62989 17.3 9.67989 17.94 10.8699 18.18L11.2399 20.8H12.7599L13.1299 18.19C14.3199 17.94 15.3699 17.3 16.1399 16.42L18.5699 17.46L19.3199 16.16L17.1999 14.61C17.5999 13.44 17.5999 12.17 17.1999 11L19.3099 9.45005L18.5599 8.15005L16.1499 9.19005C15.3641 8.28037 14.2982 7.65772 13.1199 7.42005L12.7499 4.80005H11.2499Z" fill="#757575"/>
</svg>
