<svg width="47" height="34" viewBox="0 0 47 34" fill="none" xmlns="http://www.w3.org/2000/svg">
<path d="M40.986 18.5361C40.986 22.2492 39.1502 25.8101 35.8824 28.4356C32.6146 31.0611 28.1825 32.5361 23.5611 32.5361C18.9398 32.5361 14.5077 31.0611 11.2399 28.4356C7.97207 25.8101 6.13623 22.2492 6.13623 18.5361" stroke="#0B5565" stroke-width="2.5" stroke-miterlimit="10" stroke-linecap="round"/>
<path d="M45.6946 18.5354L25.7127 2.82256C25.1396 2.37181 24.3695 2.11938 23.5675 2.11938C22.7655 2.11938 21.9953 2.37181 21.4222 2.82256L1.44336 18.5354" stroke="#0B5565" stroke-width="2.5" stroke-miterlimit="10" stroke-linecap="round"/>
<path d="M23.569 32.1488C28.0695 32.1488 31.7179 28.83 31.7179 24.736C31.7179 20.6421 28.0695 17.3232 23.569 17.3232C19.0685 17.3232 15.4202 20.6421 15.4202 24.736C15.4202 28.83 19.0685 32.1488 23.569 32.1488Z" stroke="#0B5565" stroke-width="2.5" stroke-miterlimit="10" stroke-linecap="round"/>
</svg>
