<svg width="77" height="38" viewBox="0 0 77 38" fill="none" xmlns="http://www.w3.org/2000/svg">
<g clip-path="url(#clip0_479_838)">
<path d="M55.9858 22.5361C55.9858 26.2492 54.15 29.8101 50.8822 32.4356C47.6144 35.0611 43.1823 36.5361 38.561 36.5361C33.9396 36.5361 29.5075 35.0611 26.2397 32.4356C22.9719 29.8101 21.1361 26.2492 21.1361 22.5361" stroke="#0B5565" stroke-width="2.5" stroke-miterlimit="10" stroke-linecap="round"/>
<path d="M60.6945 22.5351L40.7127 6.82231C40.1396 6.37156 39.3694 6.11914 38.5674 6.11914C37.7654 6.11914 36.9953 6.37156 36.4222 6.82231L16.4433 22.5351" stroke="#0B5565" stroke-width="2.5" stroke-miterlimit="10" stroke-linecap="round"/>
<path d="M38.5689 36.1488C43.0694 36.1488 46.7178 32.83 46.7178 28.736C46.7178 24.6421 43.0694 21.3232 38.5689 21.3232C34.0684 21.3232 30.42 24.6421 30.42 28.736C30.42 32.83 34.0684 36.1488 38.5689 36.1488Z" stroke="#0B5565" stroke-width="2.5" stroke-miterlimit="10" stroke-linecap="round"/>
</g>
<defs>
<clipPath id="clip0_479_838">
<rect width="75.7794" height="36.9376" fill="white" transform="translate(0.982941 0.600098)"/>
</clipPath>
</defs>
</svg>
