<svg width="44" height="42" viewBox="0 0 44 42" fill="none" xmlns="http://www.w3.org/2000/svg">
<path d="M40.7707 20.7289C40.7707 30.7408 32.355 38.8664 21.9646 38.8664C11.5743 38.8664 3.15857 30.7408 3.15857 20.7289C3.15857 10.7079 11.5743 2.59131 21.9646 2.59131C32.355 2.59131 40.7707 10.7079 40.7707 20.7289Z" fill="#283544"/>
<path d="M30.7795 16.1391C30.6769 16.1968 28.2339 17.4153 28.2339 20.117C28.349 23.1981 31.3168 24.2786 31.3677 24.2786C31.3168 24.3364 30.9196 25.7506 29.7432 27.233C28.8096 28.51 27.7733 29.7975 26.1998 29.7975C24.703 29.7975 24.1656 28.9464 22.4385 28.9464C20.5838 28.9464 20.059 29.7975 18.639 29.7975C17.0654 29.7975 15.9524 28.441 14.9678 27.176C13.6888 25.5204 12.6016 22.9222 12.5633 20.4275C12.5374 19.1055 12.8194 17.806 13.5353 16.7022C14.5457 15.1613 16.3495 14.1153 18.3194 14.0808C19.8287 14.0351 21.172 15.0121 22.0931 15.0121C22.9759 15.0121 24.6262 14.0808 26.4935 14.0808C27.2994 14.0815 29.4487 14.2997 30.7795 16.1391ZM21.9655 13.8168C21.6968 12.6096 22.4385 11.4024 23.1294 10.6323C24.0121 9.70096 25.4063 9.06885 26.6086 9.06885C26.6854 10.2761 26.1989 11.4601 25.3295 12.3224C24.5494 13.2537 23.2061 13.9548 21.9655 13.8168Z" fill="white"/>
</svg>
