<svg width="232" height="41" viewBox="0 0 232 41" fill="none" xmlns="http://www.w3.org/2000/svg">
<g clip-path="url(#clip0_479_835)">
<path d="M58.9858 23.5361C58.9858 27.2492 57.15 30.8101 53.8822 33.4356C50.6144 36.0611 46.1823 37.5361 41.561 37.5361C36.9396 37.5361 32.5075 36.0611 29.2397 33.4356C25.9719 30.8101 24.1361 27.2492 24.1361 23.5361" stroke="#0B5565" stroke-width="2.5" stroke-miterlimit="10" stroke-linecap="round"/>
<path d="M63.6945 23.5351L43.7127 7.82231C43.1396 7.37156 42.3694 7.11914 41.5674 7.11914C40.7654 7.11914 39.9953 7.37156 39.4222 7.82231L19.4433 23.5351" stroke="#0B5565" stroke-width="2.5" stroke-miterlimit="10" stroke-linecap="round"/>
<path d="M41.5689 37.1488C46.0694 37.1488 49.7178 33.83 49.7178 29.736C49.7178 25.6421 46.0694 22.3232 41.5689 22.3232C37.0684 22.3232 33.42 25.6421 33.42 29.736C33.42 33.83 37.0684 37.1488 41.5689 37.1488Z" stroke="#0B5565" stroke-width="2.5" stroke-miterlimit="10" stroke-linecap="round"/>
</g>
<path d="M70.3477 15.6484H76.6255C77.8758 15.6484 78.9577 15.8356 79.8711 16.21C80.792 16.5843 81.4995 17.1383 81.9937 17.8721C82.4878 18.6058 82.7349 19.5117 82.7349 20.5898C82.7349 21.4883 82.5889 22.252 82.2969 22.8809C82.0049 23.5098 81.5931 24.0301 81.0615 24.4419C80.5374 24.8537 79.9235 25.1868 79.2197 25.4414L78.0293 26.0928H72.6836L72.6611 23.2515H76.6367C77.1833 23.2515 77.6362 23.1541 77.9956 22.9595C78.355 22.7648 78.6245 22.4915 78.8042 22.1396C78.9914 21.7803 79.085 21.361 79.085 20.8818C79.085 20.3877 78.9914 19.9609 78.8042 19.6016C78.617 19.2422 78.34 18.9689 77.9731 18.7817C77.6138 18.5871 77.1646 18.4897 76.6255 18.4897H74.0088V32H70.3477V15.6484ZM79.3994 32L75.7271 24.7339L79.5903 24.7227L83.3188 31.8315V32H79.3994ZM96.335 29.1699V32H87.6313V29.1699H96.335ZM88.8779 15.6484V32H85.2168V15.6484H88.8779ZM95.2119 22.2295V24.9697H87.6313V22.2295H95.2119ZM96.3462 15.6484V18.4897H87.6313V15.6484H96.3462ZM106.611 27.6875C106.611 27.4105 106.57 27.1634 106.487 26.9463C106.405 26.7217 106.255 26.5158 106.038 26.3286C105.821 26.1414 105.514 25.9543 105.117 25.7671C104.72 25.5724 104.2 25.374 103.556 25.1719C102.822 24.9323 102.122 24.6628 101.456 24.3633C100.797 24.0563 100.209 23.7007 99.6929 23.2964C99.1763 22.8921 98.7682 22.4204 98.4688 21.8813C98.1768 21.3423 98.0308 20.7134 98.0308 19.9946C98.0308 19.2983 98.1842 18.6694 98.4912 18.1079C98.7982 17.5464 99.2287 17.0672 99.7827 16.6704C100.337 16.2661 100.988 15.9591 101.737 15.7495C102.486 15.5324 103.309 15.4238 104.208 15.4238C105.405 15.4238 106.457 15.6372 107.363 16.064C108.277 16.4832 108.988 17.0747 109.497 17.8384C110.006 18.5946 110.261 19.4743 110.261 20.4775H106.622C106.622 20.0358 106.528 19.6465 106.341 19.3096C106.162 18.9652 105.885 18.6956 105.51 18.501C105.143 18.3063 104.683 18.209 104.129 18.209C103.59 18.209 103.137 18.2913 102.77 18.4561C102.411 18.6133 102.137 18.8304 101.95 19.1074C101.771 19.3844 101.681 19.6877 101.681 20.0171C101.681 20.2791 101.748 20.5187 101.883 20.7358C102.025 20.9455 102.227 21.1439 102.489 21.3311C102.759 21.5107 103.088 21.6829 103.478 21.8477C103.867 22.0124 104.312 22.1696 104.814 22.3193C105.69 22.5964 106.465 22.9033 107.139 23.2402C107.82 23.5771 108.393 23.959 108.857 24.3857C109.321 24.8125 109.669 25.2954 109.901 25.8345C110.141 26.3735 110.261 26.9837 110.261 27.665C110.261 28.3913 110.118 29.0352 109.834 29.5967C109.557 30.1582 109.153 30.6374 108.621 31.0342C108.097 31.4235 107.468 31.7192 106.734 31.9214C106.001 32.1235 105.181 32.2246 104.275 32.2246C103.451 32.2246 102.639 32.1198 101.838 31.9102C101.037 31.693 100.311 31.3636 99.6592 30.9219C99.0153 30.4801 98.4987 29.9186 98.1094 29.2373C97.7275 28.5485 97.5366 27.7324 97.5366 26.7891H101.198C101.198 27.2832 101.269 27.7025 101.411 28.0469C101.553 28.3838 101.756 28.6571 102.018 28.8667C102.287 29.0763 102.613 29.2261 102.995 29.3159C103.376 29.4058 103.803 29.4507 104.275 29.4507C104.821 29.4507 105.263 29.3758 105.6 29.2261C105.944 29.0688 106.199 28.8555 106.364 28.5859C106.528 28.3164 106.611 28.0169 106.611 27.6875ZM116.314 15.6484V32H112.664V15.6484H116.314ZM124.445 32H120.851L120.874 29.1699H124.445C125.261 29.1699 125.95 28.9827 126.511 28.6084C127.073 28.2266 127.5 27.665 127.792 26.9238C128.083 26.1751 128.229 25.2655 128.229 24.1948V23.4424C128.229 22.6338 128.147 21.9225 127.982 21.3086C127.818 20.6872 127.574 20.1668 127.252 19.7476C126.931 19.3283 126.53 19.0138 126.051 18.8042C125.579 18.5946 125.036 18.4897 124.422 18.4897H120.784V15.6484H124.422C125.53 15.6484 126.541 15.8356 127.455 16.21C128.375 16.5843 129.169 17.1196 129.835 17.8159C130.509 18.5122 131.03 19.3358 131.396 20.2866C131.763 21.2375 131.947 22.2969 131.947 23.4648V24.1948C131.947 25.3553 131.763 26.4147 131.396 27.373C131.03 28.3239 130.509 29.1475 129.835 29.8438C129.169 30.5326 128.379 31.0641 127.466 31.4385C126.552 31.8128 125.545 32 124.445 32ZM122.929 15.6484V32H119.268V15.6484H122.929ZM147.815 23.4648V24.1948C147.815 25.4377 147.643 26.5532 147.299 27.5415C146.962 28.5298 146.479 29.3721 145.85 30.0684C145.229 30.7646 144.487 31.3 143.626 31.6743C142.773 32.0412 141.826 32.2246 140.785 32.2246C139.744 32.2246 138.794 32.0412 137.933 31.6743C137.072 31.3 136.323 30.7646 135.687 30.0684C135.058 29.3721 134.571 28.5298 134.227 27.5415C133.882 26.5532 133.71 25.4377 133.71 24.1948V23.4648C133.71 22.222 133.882 21.1064 134.227 20.1182C134.571 19.1224 135.054 18.2764 135.675 17.5801C136.304 16.8838 137.049 16.3522 137.91 15.9854C138.771 15.611 139.722 15.4238 140.763 15.4238C141.803 15.4238 142.754 15.611 143.615 15.9854C144.476 16.3522 145.217 16.8838 145.839 17.5801C146.468 18.2764 146.954 19.1224 147.299 20.1182C147.643 21.1064 147.815 22.222 147.815 23.4648ZM144.121 24.1948V23.4424C144.121 22.6113 144.046 21.8776 143.896 21.2412C143.746 20.5973 143.529 20.0583 143.245 19.624C142.96 19.1898 142.608 18.8641 142.189 18.647C141.77 18.4224 141.294 18.3101 140.763 18.3101C140.209 18.3101 139.726 18.4224 139.314 18.647C138.902 18.8641 138.554 19.1898 138.27 19.624C137.993 20.0583 137.779 20.5973 137.629 21.2412C137.487 21.8776 137.416 22.6113 137.416 23.4424V24.1948C137.416 25.0184 137.487 25.7521 137.629 26.396C137.779 27.0324 137.996 27.5715 138.281 28.0132C138.565 28.4549 138.913 28.7881 139.325 29.0127C139.744 29.2373 140.231 29.3496 140.785 29.3496C141.317 29.3496 141.788 29.2373 142.2 29.0127C142.619 28.7881 142.971 28.4549 143.256 28.0132C143.54 27.5715 143.754 27.0324 143.896 26.396C144.046 25.7521 144.121 25.0184 144.121 24.1948Z" fill="#0B5565"/>
<defs>
<clipPath id="clip0_479_835">
<rect width="75.7794" height="36.9376" fill="white" transform="translate(3.98294 1.6001)"/>
</clipPath>
</defs>
</svg>
